<mxfile host="app.diagrams.net" agent="Mozilla/5.0 (X11; Ubuntu; Linux x86_64; rv:130.0) Gecko/20100101 Firefox/130.0" version="24.7.13">
  <diagram name="Page-1" id="FQEeyu29OBMT3x3ZbnN-">
    <mxGraphModel grid="1" page="0" gridSize="10" guides="1" tooltips="1" connect="1" arrows="1" fold="1" pageScale="1" pageWidth="827" pageHeight="1169" math="0" shadow="0">
      <root>
        <mxCell id="0" />
        <mxCell id="1" parent="0" />
        <mxCell id="kSP38HxnGxbYBPMSqh5L-5" value="Alternatives" style="shape=image;html=1;verticalAlign=top;verticalLabelPosition=bottom;labelBackgroundColor=#ffffff;imageAspect=0;aspect=fixed;image=https://cdn2.iconfinder.com/data/icons/font-awesome/1792/table-128.png" vertex="1" parent="1">
          <mxGeometry x="300" y="400" width="80" height="80" as="geometry" />
        </mxCell>
        <mxCell id="kSP38HxnGxbYBPMSqh5L-20" value="Preference" style="swimlane;fontStyle=0;childLayout=stackLayout;horizontal=1;startSize=30;horizontalStack=0;resizeParent=1;resizeParentMax=0;resizeLast=0;collapsible=1;marginBottom=0;whiteSpace=wrap;html=1;" vertex="1" parent="1">
          <mxGeometry x="400" y="-40" width="120" height="120" as="geometry" />
        </mxCell>
        <mxCell id="kSP38HxnGxbYBPMSqh5L-21" value="A &amp;gt; B" style="text;strokeColor=none;fillColor=none;align=left;verticalAlign=middle;spacingLeft=4;spacingRight=4;overflow=hidden;points=[[0,0.5],[1,0.5]];portConstraint=eastwest;rotatable=0;whiteSpace=wrap;html=1;" vertex="1" parent="kSP38HxnGxbYBPMSqh5L-20">
          <mxGeometry y="30" width="120" height="30" as="geometry" />
        </mxCell>
        <mxCell id="kSP38HxnGxbYBPMSqh5L-22" value="C = D" style="text;strokeColor=none;fillColor=none;align=left;verticalAlign=middle;spacingLeft=4;spacingRight=4;overflow=hidden;points=[[0,0.5],[1,0.5]];portConstraint=eastwest;rotatable=0;whiteSpace=wrap;html=1;" vertex="1" parent="kSP38HxnGxbYBPMSqh5L-20">
          <mxGeometry y="60" width="120" height="30" as="geometry" />
        </mxCell>
        <mxCell id="kSP38HxnGxbYBPMSqh5L-23" value="E &amp;lt; F" style="text;strokeColor=none;fillColor=none;align=left;verticalAlign=middle;spacingLeft=4;spacingRight=4;overflow=hidden;points=[[0,0.5],[1,0.5]];portConstraint=eastwest;rotatable=0;whiteSpace=wrap;html=1;" vertex="1" parent="kSP38HxnGxbYBPMSqh5L-20">
          <mxGeometry y="90" width="120" height="30" as="geometry" />
        </mxCell>
        <mxCell id="kSP38HxnGxbYBPMSqh5L-24" value="Preference" style="swimlane;fontStyle=0;childLayout=stackLayout;horizontal=1;startSize=30;horizontalStack=0;resizeParent=1;resizeParentMax=0;resizeLast=0;collapsible=1;marginBottom=0;whiteSpace=wrap;html=1;" vertex="1" parent="1">
          <mxGeometry x="400" y="100" width="120" height="120" as="geometry" />
        </mxCell>
        <mxCell id="kSP38HxnGxbYBPMSqh5L-25" value="A &amp;gt; B" style="text;strokeColor=none;fillColor=none;align=left;verticalAlign=middle;spacingLeft=4;spacingRight=4;overflow=hidden;points=[[0,0.5],[1,0.5]];portConstraint=eastwest;rotatable=0;whiteSpace=wrap;html=1;" vertex="1" parent="kSP38HxnGxbYBPMSqh5L-24">
          <mxGeometry y="30" width="120" height="30" as="geometry" />
        </mxCell>
        <mxCell id="kSP38HxnGxbYBPMSqh5L-26" value="C = D" style="text;strokeColor=none;fillColor=none;align=left;verticalAlign=middle;spacingLeft=4;spacingRight=4;overflow=hidden;points=[[0,0.5],[1,0.5]];portConstraint=eastwest;rotatable=0;whiteSpace=wrap;html=1;" vertex="1" parent="kSP38HxnGxbYBPMSqh5L-24">
          <mxGeometry y="60" width="120" height="30" as="geometry" />
        </mxCell>
        <mxCell id="kSP38HxnGxbYBPMSqh5L-27" value="E &amp;gt; F" style="text;strokeColor=none;fillColor=none;align=left;verticalAlign=middle;spacingLeft=4;spacingRight=4;overflow=hidden;points=[[0,0.5],[1,0.5]];portConstraint=eastwest;rotatable=0;whiteSpace=wrap;html=1;" vertex="1" parent="kSP38HxnGxbYBPMSqh5L-24">
          <mxGeometry y="90" width="120" height="30" as="geometry" />
        </mxCell>
        <mxCell id="kSP38HxnGxbYBPMSqh5L-28" value="Preference" style="swimlane;fontStyle=0;childLayout=stackLayout;horizontal=1;startSize=30;horizontalStack=0;resizeParent=1;resizeParentMax=0;resizeLast=0;collapsible=1;marginBottom=0;whiteSpace=wrap;html=1;" vertex="1" parent="1">
          <mxGeometry x="400" y="240" width="120" height="120" as="geometry" />
        </mxCell>
        <mxCell id="kSP38HxnGxbYBPMSqh5L-29" value="A &amp;gt; B" style="text;strokeColor=none;fillColor=none;align=left;verticalAlign=middle;spacingLeft=4;spacingRight=4;overflow=hidden;points=[[0,0.5],[1,0.5]];portConstraint=eastwest;rotatable=0;whiteSpace=wrap;html=1;" vertex="1" parent="kSP38HxnGxbYBPMSqh5L-28">
          <mxGeometry y="30" width="120" height="30" as="geometry" />
        </mxCell>
        <mxCell id="kSP38HxnGxbYBPMSqh5L-30" value="C &amp;lt; D" style="text;strokeColor=none;fillColor=none;align=left;verticalAlign=middle;spacingLeft=4;spacingRight=4;overflow=hidden;points=[[0,0.5],[1,0.5]];portConstraint=eastwest;rotatable=0;whiteSpace=wrap;html=1;" vertex="1" parent="kSP38HxnGxbYBPMSqh5L-28">
          <mxGeometry y="60" width="120" height="30" as="geometry" />
        </mxCell>
        <mxCell id="kSP38HxnGxbYBPMSqh5L-31" value="E &amp;lt; F" style="text;strokeColor=none;fillColor=none;align=left;verticalAlign=middle;spacingLeft=4;spacingRight=4;overflow=hidden;points=[[0,0.5],[1,0.5]];portConstraint=eastwest;rotatable=0;whiteSpace=wrap;html=1;" vertex="1" parent="kSP38HxnGxbYBPMSqh5L-28">
          <mxGeometry y="90" width="120" height="30" as="geometry" />
        </mxCell>
        <mxCell id="kSP38HxnGxbYBPMSqh5L-33" value="" style="shape=flexArrow;endArrow=classic;html=1;rounded=0;" edge="1" parent="1">
          <mxGeometry width="50" height="50" relative="1" as="geometry">
            <mxPoint x="560" y="160" as="sourcePoint" />
            <mxPoint x="680" y="160" as="targetPoint" />
          </mxGeometry>
        </mxCell>
        <mxCell id="kSP38HxnGxbYBPMSqh5L-34" value="Elicitation" style="text;html=1;align=center;verticalAlign=middle;whiteSpace=wrap;rounded=0;" vertex="1" parent="1">
          <mxGeometry x="560" y="120" width="60" height="30" as="geometry" />
        </mxCell>
        <mxCell id="ya6sWpMCBIsRNnBqim_g-29" value="&lt;div&gt;Collective model&lt;/div&gt;" style="points=[[0.25,0,0],[0.5,0,0],[0.75,0,0],[1,0.25,0],[1,0.5,0],[1,0.75,0],[0.75,1,0],[0.5,1,0],[0.25,1,0],[0,0.75,0],[0,0.5,0],[0,0.25,0]];shape=mxgraph.bpmn.task;whiteSpace=wrap;rectStyle=rounded;size=10;html=1;container=1;expand=0;collapsible=0;taskMarker=manual;" vertex="1" parent="1">
          <mxGeometry width="80" height="320" as="geometry" />
        </mxCell>
        <mxCell id="ya6sWpMCBIsRNnBqim_g-34" value="DM1" style="points=[[0.25,0,0],[0.5,0,0],[0.75,0,0],[1,0.25,0],[1,0.5,0],[1,0.75,0],[0.75,1,0],[0.5,1,0],[0.25,1,0],[0,0.75,0],[0,0.5,0],[0,0.25,0]];shape=mxgraph.bpmn.task;whiteSpace=wrap;rectStyle=rounded;size=10;html=1;container=1;expand=0;collapsible=0;taskMarker=user;" vertex="1" parent="1">
          <mxGeometry x="200" width="80" height="80" as="geometry" />
        </mxCell>
        <mxCell id="ya6sWpMCBIsRNnBqim_g-35" value="DM2" style="points=[[0.25,0,0],[0.5,0,0],[0.75,0,0],[1,0.25,0],[1,0.5,0],[1,0.75,0],[0.75,1,0],[0.5,1,0],[0.25,1,0],[0,0.75,0],[0,0.5,0],[0,0.25,0]];shape=mxgraph.bpmn.task;whiteSpace=wrap;rectStyle=rounded;size=10;html=1;container=1;expand=0;collapsible=0;taskMarker=user;" vertex="1" parent="1">
          <mxGeometry x="200" y="120" width="80" height="80" as="geometry" />
        </mxCell>
        <mxCell id="ya6sWpMCBIsRNnBqim_g-36" value="&lt;div&gt;DM3&lt;/div&gt;" style="points=[[0.25,0,0],[0.5,0,0],[0.75,0,0],[1,0.25,0],[1,0.5,0],[1,0.75,0],[0.75,1,0],[0.5,1,0],[0.25,1,0],[0,0.75,0],[0,0.5,0],[0,0.25,0]];shape=mxgraph.bpmn.task;whiteSpace=wrap;rectStyle=rounded;size=10;html=1;container=1;expand=0;collapsible=0;taskMarker=user;" vertex="1" parent="1">
          <mxGeometry x="200" y="240" width="80" height="80" as="geometry" />
        </mxCell>
        <mxCell id="ya6sWpMCBIsRNnBqim_g-37" value="" style="endArrow=classic;html=1;rounded=0;edgeStyle=elbowEdgeStyle;" edge="1" parent="1" source="ya6sWpMCBIsRNnBqim_g-29" target="ya6sWpMCBIsRNnBqim_g-34">
          <mxGeometry width="50" height="50" relative="1" as="geometry">
            <mxPoint x="340" y="140" as="sourcePoint" />
            <mxPoint x="390" y="90" as="targetPoint" />
          </mxGeometry>
        </mxCell>
        <mxCell id="ya6sWpMCBIsRNnBqim_g-38" value="" style="endArrow=classic;html=1;rounded=0;edgeStyle=elbowEdgeStyle;" edge="1" parent="1" source="ya6sWpMCBIsRNnBqim_g-29" target="ya6sWpMCBIsRNnBqim_g-35">
          <mxGeometry width="50" height="50" relative="1" as="geometry">
            <mxPoint x="90" y="146" as="sourcePoint" />
            <mxPoint x="210" y="74" as="targetPoint" />
          </mxGeometry>
        </mxCell>
        <mxCell id="ya6sWpMCBIsRNnBqim_g-39" value="" style="endArrow=classic;html=1;rounded=0;edgeStyle=elbowEdgeStyle;" edge="1" parent="1" source="ya6sWpMCBIsRNnBqim_g-29" target="ya6sWpMCBIsRNnBqim_g-36">
          <mxGeometry width="50" height="50" relative="1" as="geometry">
            <mxPoint x="90" y="170" as="sourcePoint" />
            <mxPoint x="210" y="170" as="targetPoint" />
          </mxGeometry>
        </mxCell>
        <mxCell id="ya6sWpMCBIsRNnBqim_g-40" value="&lt;div&gt;Perturbation&lt;/div&gt;" style="text;html=1;align=center;verticalAlign=middle;resizable=0;points=[];autosize=1;strokeColor=none;fillColor=none;" vertex="1" parent="1">
          <mxGeometry x="80" width="90" height="30" as="geometry" />
        </mxCell>
        <mxCell id="ya6sWpMCBIsRNnBqim_g-46" value="" style="endArrow=classic;html=1;rounded=0;edgeStyle=elbowEdgeStyle;" edge="1" parent="1" source="ya6sWpMCBIsRNnBqim_g-34" target="kSP38HxnGxbYBPMSqh5L-20">
          <mxGeometry width="50" height="50" relative="1" as="geometry">
            <mxPoint x="90" y="170" as="sourcePoint" />
            <mxPoint x="210" y="50" as="targetPoint" />
          </mxGeometry>
        </mxCell>
        <mxCell id="ya6sWpMCBIsRNnBqim_g-47" value="" style="endArrow=classic;html=1;rounded=0;edgeStyle=elbowEdgeStyle;" edge="1" parent="1" source="ya6sWpMCBIsRNnBqim_g-35" target="kSP38HxnGxbYBPMSqh5L-24">
          <mxGeometry width="50" height="50" relative="1" as="geometry">
            <mxPoint x="290" y="50" as="sourcePoint" />
            <mxPoint x="410" y="30" as="targetPoint" />
          </mxGeometry>
        </mxCell>
        <mxCell id="ya6sWpMCBIsRNnBqim_g-48" value="" style="endArrow=classic;html=1;rounded=0;edgeStyle=elbowEdgeStyle;" edge="1" parent="1" source="ya6sWpMCBIsRNnBqim_g-36" target="kSP38HxnGxbYBPMSqh5L-28">
          <mxGeometry width="50" height="50" relative="1" as="geometry">
            <mxPoint x="290" y="170" as="sourcePoint" />
            <mxPoint x="410" y="170" as="targetPoint" />
          </mxGeometry>
        </mxCell>
        <mxCell id="ya6sWpMCBIsRNnBqim_g-49" value="" style="endArrow=classic;html=1;rounded=0;edgeStyle=orthogonalEdgeStyle;jumpStyle=none;" edge="1" parent="1" source="kSP38HxnGxbYBPMSqh5L-5" target="kSP38HxnGxbYBPMSqh5L-20">
          <mxGeometry width="50" height="50" relative="1" as="geometry">
            <mxPoint x="239" y="350" as="sourcePoint" />
            <mxPoint x="359" y="370" as="targetPoint" />
            <Array as="points">
              <mxPoint x="340" y="20" />
            </Array>
          </mxGeometry>
        </mxCell>
        <mxCell id="ya6sWpMCBIsRNnBqim_g-50" value="Inconsistencies" style="text;html=1;align=center;verticalAlign=middle;resizable=0;points=[];autosize=1;strokeColor=none;fillColor=none;" vertex="1" parent="1">
          <mxGeometry x="279.5" y="-40" width="110" height="30" as="geometry" />
        </mxCell>
        <mxCell id="ya6sWpMCBIsRNnBqim_g-51" value="DM1" style="points=[[0.25,0,0],[0.5,0,0],[0.75,0,0],[1,0.25,0],[1,0.5,0],[1,0.75,0],[0.75,1,0],[0.5,1,0],[0.25,1,0],[0,0.75,0],[0,0.5,0],[0,0.25,0]];shape=mxgraph.bpmn.task;whiteSpace=wrap;rectStyle=rounded;size=10;html=1;container=1;expand=0;collapsible=0;taskMarker=user;" vertex="1" parent="1">
          <mxGeometry x="840" width="80" height="80" as="geometry" />
        </mxCell>
        <mxCell id="ya6sWpMCBIsRNnBqim_g-52" value="DM2" style="points=[[0.25,0,0],[0.5,0,0],[0.75,0,0],[1,0.25,0],[1,0.5,0],[1,0.75,0],[0.75,1,0],[0.5,1,0],[0.25,1,0],[0,0.75,0],[0,0.5,0],[0,0.25,0]];shape=mxgraph.bpmn.task;whiteSpace=wrap;rectStyle=rounded;size=10;html=1;container=1;expand=0;collapsible=0;taskMarker=user;" vertex="1" parent="1">
          <mxGeometry x="840" y="120" width="80" height="80" as="geometry" />
        </mxCell>
        <mxCell id="ya6sWpMCBIsRNnBqim_g-53" value="&lt;div&gt;DM3&lt;/div&gt;" style="points=[[0.25,0,0],[0.5,0,0],[0.75,0,0],[1,0.25,0],[1,0.5,0],[1,0.75,0],[0.75,1,0],[0.5,1,0],[0.25,1,0],[0,0.75,0],[0,0.5,0],[0,0.25,0]];shape=mxgraph.bpmn.task;whiteSpace=wrap;rectStyle=rounded;size=10;html=1;container=1;expand=0;collapsible=0;taskMarker=user;" vertex="1" parent="1">
          <mxGeometry x="840" y="240" width="80" height="80" as="geometry" />
        </mxCell>
        <mxCell id="ya6sWpMCBIsRNnBqim_g-54" value="&lt;div&gt;Collective model&lt;/div&gt;" style="points=[[0.25,0,0],[0.5,0,0],[0.75,0,0],[1,0.25,0],[1,0.5,0],[1,0.75,0],[0.75,1,0],[0.5,1,0],[0.25,1,0],[0,0.75,0],[0,0.5,0],[0,0.25,0]];shape=mxgraph.bpmn.task;whiteSpace=wrap;rectStyle=rounded;size=10;html=1;container=1;expand=0;collapsible=0;taskMarker=manual;" vertex="1" parent="1">
          <mxGeometry x="720" width="80" height="320" as="geometry" />
        </mxCell>
        <mxCell id="ya6sWpMCBIsRNnBqim_g-63" value="" style="shape=flexArrow;endArrow=classic;html=1;rounded=0;" edge="1" parent="1">
          <mxGeometry width="50" height="50" relative="1" as="geometry">
            <mxPoint x="800" y="360" as="sourcePoint" />
            <mxPoint x="800" y="400" as="targetPoint" />
          </mxGeometry>
        </mxCell>
        <mxCell id="ya6sWpMCBIsRNnBqim_g-66" value="A &amp;gt; B ?" style="text;html=1;align=center;verticalAlign=middle;whiteSpace=wrap;rounded=0;" vertex="1" parent="1">
          <mxGeometry x="790" y="400" width="60" height="30" as="geometry" />
        </mxCell>
        <mxCell id="ya6sWpMCBIsRNnBqim_g-67" value="" style="shape=flexArrow;endArrow=classic;html=1;rounded=0;" edge="1" parent="1">
          <mxGeometry width="50" height="50" relative="1" as="geometry">
            <mxPoint x="840" y="400" as="sourcePoint" />
            <mxPoint x="840" y="360" as="targetPoint" />
          </mxGeometry>
        </mxCell>
        <mxCell id="ya6sWpMCBIsRNnBqim_g-69" value="Update models" style="text;html=1;align=center;verticalAlign=middle;whiteSpace=wrap;rounded=0;" vertex="1" parent="1">
          <mxGeometry x="840" y="360" width="120" height="30" as="geometry" />
        </mxCell>
        <mxCell id="ya6sWpMCBIsRNnBqim_g-70" value="Find relation to improve consensus" style="text;html=1;align=center;verticalAlign=middle;whiteSpace=wrap;rounded=0;" vertex="1" parent="1">
          <mxGeometry x="660" y="360" width="120" height="30" as="geometry" />
        </mxCell>
        <mxCell id="ya6sWpMCBIsRNnBqim_g-71" value="" style="shape=flexArrow;endArrow=classic;html=1;rounded=0;" edge="1" parent="1">
          <mxGeometry width="50" height="50" relative="1" as="geometry">
            <mxPoint x="960" y="160" as="sourcePoint" />
            <mxPoint x="1080" y="160" as="targetPoint" />
          </mxGeometry>
        </mxCell>
        <mxCell id="ya6sWpMCBIsRNnBqim_g-72" value="Consensus &amp;gt; threshold" style="text;html=1;align=center;verticalAlign=middle;whiteSpace=wrap;rounded=0;" vertex="1" parent="1">
          <mxGeometry x="940" y="120" width="160" height="30" as="geometry" />
        </mxCell>
        <mxCell id="ya6sWpMCBIsRNnBqim_g-74" value="&lt;h1 style=&quot;margin-top: 0px;&quot;&gt;Measures&lt;/h1&gt;&lt;p&gt;- Proximity between MoC and MeC&lt;br&gt;&lt;/p&gt;&lt;div&gt;&lt;br&gt;&lt;/div&gt;&lt;div&gt;- Consensus over time&lt;br&gt;&lt;/div&gt;" style="text;html=1;whiteSpace=wrap;overflow=hidden;rounded=0;" vertex="1" parent="1">
          <mxGeometry x="1200" y="200" width="200" height="120" as="geometry" />
        </mxCell>
      </root>
    </mxGraphModel>
  </diagram>
</mxfile>
